<?xml version="1.0" standalone="no"?>
<!DOCTYPE svg PUBLIC "-//W3C//DTD SVG 20010904//EN"
 "http://www.w3.org/TR/2001/REC-SVG-20010904/DTD/svg10.dtd">
<svg version="1.0" xmlns="http://www.w3.org/2000/svg"
 width="79.000000pt" height="79.000000pt" viewBox="0 0 79.000000 79.000000"
 preserveAspectRatio="xMidYMid meet">
<metadata>
Created by potrace 1.15, written by Peter Selinger 2001-2017
</metadata>
<g transform="translate(0.000000,79.000000) scale(0.100000,-0.100000)"
fill="#5bff59" stroke="none">
<path d="M50 775 c0 -8 5 -15 12 -15 9 0 9 -3 0 -12 -16 -16 -15 -45 1 -51 10
-4 10 -6 0 -6 -23 -2 -14 -39 10 -44 l22 -4 -22 -2 c-28 -1 -33 -41 -6 -41 13
0 14 -3 5 -12 -16 -16 -15 -46 2 -94 11 -34 11 -46 -2 -87 -13 -40 -13 -53 -2
-87 9 -29 19 -40 33 -40 16 0 18 4 12 23 -5 12 -7 39 -6 60 1 20 1 60 1 87 0
28 0 70 0 95 0 256 2 245 -31 245 -19 0 -29 -5 -29 -15z"/>
<path d="M124 765 c-3 -14 -3 -40 1 -58 4 -17 6 -49 6 -69 -2 -42 -2 -131 -1
-180 0 -18 -2 -55 -5 -83 -7 -55 9 -91 33 -76 10 6 11 13 1 33 -9 21 -8 35 6
71 16 42 16 49 1 95 -12 36 -14 56 -7 76 6 14 12 26 13 26 7 0 10 -154 6 -235
-2 -39 0 -50 12 -50 25 0 42 145 25 207 -4 15 -4 39 -1 53 5 21 12 25 43 25
23 0 45 8 58 20 21 19 28 20 161 10 214 -15 278 -13 297 8 26 29 22 87 -8 110
-24 19 -37 20 -224 15 -174 -5 -201 -4 -222 11 -17 12 -46 16 -106 16 -80 0
-83 -1 -89 -25z m181 -27 c26 -21 32 -21 227 -14 209 7 228 4 228 -35 0 -34
-29 -37 -230 -24 -185 12 -196 11 -222 -6 -20 -14 -43 -19 -85 -17 -43 1 -48
2 -20 5 29 3 37 9 37 24 0 15 -8 19 -42 21 l-43 1 43 4 c34 3 42 8 42 24 0 16
-7 19 -46 19 -27 0 -43 4 -39 10 3 6 32 10 64 10 45 0 65 -5 86 -22z"/>
<path d="M302 335 c-28 -13 -68 -27 -89 -31 -45 -8 -108 -64 -125 -110 -11
-31 -16 -34 -50 -34 -36 0 -38 -2 -38 -31 0 -41 34 -95 70 -114 44 -23 608
-22 651 0 38 20 69 70 69 113 0 31 -2 32 -39 32 -34 0 -39 3 -44 28 -8 39 -73
100 -121 113 -23 6 -63 21 -90 35 -65 31 -125 31 -194 -1z m458 -210 c0 -23
-37 -69 -65 -81 -51 -21 -554 -20 -599 1 -27 13 -66 59 -66 79 0 3 164 6 365
6 201 0 365 -2 365 -5z"/>
</g>
</svg>
