<?xml version="1.0" standalone="no"?>
<!DOCTYPE svg PUBLIC "-//W3C//DTD SVG 20010904//EN"
 "http://www.w3.org/TR/2001/REC-SVG-20010904/DTD/svg10.dtd">
<svg version="1.0" xmlns="http://www.w3.org/2000/svg"
 width="79.000000pt" height="79.000000pt" viewBox="0 0 79.000000 79.000000"
 preserveAspectRatio="xMidYMid meet">
<metadata>
Created by potrace 1.15, written by Peter Selinger 2001-2017
</metadata>
<g transform="translate(0.000000,79.000000) scale(0.100000,-0.100000)"
fill="#5bff59" stroke="none">
<path d="M180 674 l0 -117 -35 -38 -35 -39 0 -240 0 -240 140 0 140 0 0 211
c0 234 -7 276 -53 315 -29 24 -29 25 -30 142 l-2 117 -62 3 -63 3 0 -117z m80
-119 c0 -9 18 -33 40 -54 l40 -38 0 -216 0 -217 -101 0 -100 0 3 216 3 216 38
34 c20 19 37 43 37 54 0 13 7 20 20 20 11 0 20 -7 20 -15z"/>
<path d="M162 382 c-9 -6 -12 -41 -10 -138 l3 -129 88 -3 88 -3 -3 138 -3 138
-75 3 c-41 1 -81 -2 -88 -6z m128 -132 l0 -100 -45 0 -45 0 0 94 0 95 43 4
c23 2 43 4 45 5 1 1 2 -43 2 -98z"/>
<path d="M488 544 c-10 -3 -18 -9 -18 -12 0 -4 -7 -49 -14 -100 -20 -126 -5
-174 65 -202 28 -12 29 -15 29 -81 0 -60 -2 -69 -18 -69 -23 0 -62 -40 -62
-63 0 -15 13 -17 105 -17 68 0 105 4 105 11 0 23 -23 51 -52 63 -29 13 -30 16
-32 79 l-1 65 36 16 c55 25 63 48 57 181 -3 64 -9 119 -13 123 -8 8 -162 13
-187 6z m158 -109 l10 -75 -84 0 -84 0 6 28 c3 15 8 48 12 75 l6 47 63 0 62 0
9 -75z"/>
</g>
</svg>
