<?xml version="1.0" standalone="no"?>
<!DOCTYPE svg PUBLIC "-//W3C//DTD SVG 20010904//EN"
 "http://www.w3.org/TR/2001/REC-SVG-20010904/DTD/svg10.dtd">
<svg version="1.0" xmlns="http://www.w3.org/2000/svg"
 width="79.000000pt" height="79.000000pt" viewBox="0 0 79.000000 79.000000"
 preserveAspectRatio="xMidYMid meet">
<metadata>
Created by potrace 1.15, written by Peter Selinger 2001-2017
</metadata>
<g transform="translate(0.000000,79.000000) scale(0.100000,-0.100000)"
fill="#5bff59" stroke="none">
<path d="M212 763 c-27 -39 -67 -120 -82 -168 -7 -22 -18 -47 -25 -55 -7 -8
-33 -71 -59 -138 -42 -112 -46 -132 -46 -209 0 -78 3 -89 27 -122 57 -74 36
-70 365 -71 l297 0 44 44 c43 43 44 45 46 116 2 81 -6 99 -74 166 -44 42 -75
113 -75 169 0 17 -5 36 -10 41 -14 14 11 83 56 157 44 72 42 91 -11 95 -34 3
-44 -1 -65 -27 l-26 -30 1 27 c0 25 -4 27 -42 30 -42 3 -43 3 -83 -59 -22 -34
-50 -89 -62 -122 -12 -33 -24 -54 -26 -47 -3 7 17 55 43 106 27 53 45 101 41
109 -4 12 -17 15 -48 13 -40 -3 -45 -6 -79 -63 -21 -33 -46 -86 -56 -117 -10
-32 -22 -58 -26 -58 -13 0 0 38 45 127 22 46 38 89 34 98 -3 10 -19 15 -45 15
-32 0 -43 -5 -59 -27z m248 -300 c-63 -163 -72 -194 -77 -258 -4 -62 -2 -76
21 -117 l25 -48 -145 0 c-153 0 -179 6 -219 50 -16 18 -20 36 -20 94 1 58 9
92 45 193 l45 122 170 3 c94 2 171 5 172 6 1 1 -6 -19 -17 -45z m205 -237 c25
-18 27 -89 3 -113 -22 -21 -114 -28 -148 -11 -48 26 -53 110 -7 128 35 14 131
12 152 -4z"/>
</g>
</svg>
