<?xml version="1.0" standalone="no"?>
<!DOCTYPE svg PUBLIC "-//W3C//DTD SVG 20010904//EN"
 "http://www.w3.org/TR/2001/REC-SVG-20010904/DTD/svg10.dtd">
<svg version="1.0" xmlns="http://www.w3.org/2000/svg"
 width="79.000000pt" height="79.000000pt" viewBox="0 0 79.000000 79.000000"
 preserveAspectRatio="xMidYMid meet">
<metadata>
Created by potrace 1.15, written by Peter Selinger 2001-2017
</metadata>
<g transform="translate(0.000000,79.000000) scale(0.100000,-0.100000)"
fill="#5bff59" stroke="none">
<path d="M376 540 c-38 -38 -49 -57 -48 -80 l1 -30 -114 0 c-111 0 -114 -1
-134 -26 -19 -24 -21 -40 -21 -155 l0 -128 -27 -3 c-42 -5 -44 -49 -4 -88 l29
-30 335 0 335 0 32 26 c25 21 30 33 28 58 -2 25 -8 32 -30 34 l-28 3 0 133 c0
126 -1 134 -23 154 -21 20 -34 22 -136 22 -107 0 -112 1 -106 20 7 22 -10 61
-33 74 -13 8 -14 10 -1 20 9 6 18 19 22 29 13 34 -28 17 -77 -33z m4 -181 c0
-27 -3 -31 -22 -26 -11 3 -34 -1 -49 -8 -24 -13 -32 -13 -64 0 -32 14 -39 14
-69 0 -29 -14 -37 -14 -55 -3 -20 12 -28 47 -14 61 3 4 66 7 140 7 l133 0 0
-31z m260 -54 l0 -35 -115 0 -115 0 0 35 0 35 115 0 115 0 0 -35z m-405 -15
c8 -13 58 -13 89 1 43 20 56 -1 56 -92 l0 -79 -140 0 -140 0 0 83 0 83 34 -4
c19 -2 43 1 53 7 23 13 40 14 48 1z m405 -85 l0 -35 -115 0 -115 0 0 35 0 35
115 0 115 0 0 -35z m105 -145 c-17 -19 -31 -20 -350 -20 -319 0 -333 1 -350
20 -18 20 -17 20 350 20 367 0 368 0 350 -20z"/>
</g>
</svg>
