<?xml version="1.0" standalone="no"?>
<!DOCTYPE svg PUBLIC "-//W3C//DTD SVG 20010904//EN"
 "http://www.w3.org/TR/2001/REC-SVG-20010904/DTD/svg10.dtd">
<svg version="1.0" xmlns="http://www.w3.org/2000/svg"
 width="1366.000000pt" height="507.000000pt" viewBox="0 0 1366.000000 507.000000"
 preserveAspectRatio="xMidYMid meet">
<metadata>
Created by potrace 1.15, written by Peter Selinger 2001-2017
</metadata>
<g transform="translate(0.000000,507.000000) scale(0.100000,-0.100000)"
fill="#00cb22" stroke="none">
<path d="M10615 5064 c-11 -3 -47 -9 -80 -16 -84 -15 -164 -54 -171 -82 -3
-13 2 -47 10 -77 9 -29 16 -76 16 -105 0 -45 -32 -262 -45 -304 -2 -8 -9 -46
-15 -85 -6 -38 -17 -106 -26 -150 -8 -44 -19 -105 -24 -135 -5 -30 -16 -93
-25 -140 -26 -140 -46 -250 -60 -335 -8 -44 -21 -118 -30 -165 -9 -47 -20
-110 -25 -140 -5 -30 -16 -93 -25 -140 -17 -90 -29 -158 -76 -420 -16 -91 -36
-201 -44 -245 -61 -330 -64 -385 -26 -470 37 -85 132 -128 276 -127 141 1 299
50 311 98 3 12 -2 54 -11 91 -18 70 -16 144 5 250 5 26 16 89 25 138 9 50 20
113 25 140 6 28 21 113 34 190 27 151 46 261 71 395 9 47 20 110 25 140 12 70
64 358 85 470 9 47 20 114 26 150 5 36 12 72 15 82 2 9 9 40 14 70 5 29 16 94
25 143 9 50 20 113 25 140 5 28 21 118 35 200 41 228 23 330 -66 390 -61 40
-197 64 -274 49z"/>
<path d="M650 5020 c-284 -60 -585 -233 -636 -365 -13 -36 -14 -52 -5 -95 34
-158 197 -358 272 -335 11 4 19 10 19 14 0 17 149 126 215 157 167 78 268 54
282 -68 5 -42 -10 -133 -41 -243 -18 -66 -70 -262 -106 -400 -16 -60 -36 -137
-45 -170 -9 -33 -27 -103 -41 -155 -14 -52 -39 -144 -54 -205 -30 -114 -37
-141 -91 -340 -29 -108 -32 -134 -33 -265 -1 -127 2 -153 22 -213 65 -188 211
-305 424 -338 104 -16 357 -6 492 21 192 38 393 113 521 195 32 20 58 35 60
33 3 -3 -4 -52 -35 -223 -12 -66 -25 -138 -29 -160 -6 -40 -7 -40 -61 -48
-311 -43 -652 -162 -852 -298 -337 -229 -537 -669 -463 -1020 72 -343 411
-543 820 -484 198 29 342 84 472 182 275 206 473 574 573 1061 7 34 16 64 19
66 11 6 246 -22 306 -37 237 -58 345 -105 610 -261 71 -42 163 -90 205 -108
65 -27 87 -31 165 -31 77 0 97 3 141 26 28 14 65 37 82 51 72 61 132 203 132
312 0 75 -18 92 -114 110 -66 13 -205 66 -351 134 -11 6 -51 22 -90 36 -294
109 -635 197 -917 234 -101 14 -98 7 -74 131 33 176 38 207 47 259 4 30 22
132 39 225 17 94 35 199 40 235 6 36 13 71 15 79 3 8 10 41 14 75 11 74 58
344 70 406 6 25 17 88 26 140 23 134 44 256 56 318 6 29 15 79 19 110 5 31 16
95 24 142 8 47 20 110 25 140 5 30 19 109 31 175 12 66 28 156 35 200 8 44 21
118 30 165 19 107 20 260 1 303 -18 44 -62 86 -116 111 -62 28 -257 29 -340 1
-132 -43 -155 -70 -129 -148 20 -59 15 -191 -10 -327 -12 -63 -26 -137 -31
-165 -32 -181 -41 -232 -45 -245 -2 -8 -9 -44 -14 -80 -11 -69 -53 -311 -70
-395 -5 -27 -17 -93 -26 -145 -9 -52 -23 -126 -30 -165 -7 -38 -19 -104 -25
-145 -7 -41 -18 -102 -25 -135 -7 -33 -16 -83 -20 -111 l-6 -51 -72 -40 c-143
-78 -260 -124 -447 -174 -95 -26 -136 -31 -235 -33 -104 -1 -125 2 -155 19
-45 26 -80 94 -80 155 0 57 23 183 50 286 12 43 39 144 60 224 20 80 52 199
69 265 18 66 48 179 66 250 18 72 43 166 55 210 56 204 75 343 66 486 -17 268
-149 434 -386 484 -94 20 -263 18 -370 -5z m1083 -3760 c-50 -217 -153 -448
-244 -545 -74 -79 -137 -109 -231 -109 -79 -1 -111 17 -146 85 -20 37 -23 54
-18 109 18 217 179 379 472 475 70 23 137 41 170 44 8 1 7 -17 -3 -59z"/>
<path d="M13140 4463 c0 -26 3 -28 37 -28 l38 0 3 -97 3 -98 29 0 29 0 3 98 3
97 38 3 c32 3 37 7 37 28 0 24 0 24 -110 24 l-110 0 0 -27z"/>
<path d="M13400 4365 l0 -125 30 0 29 0 3 73 3 72 32 -49 32 -49 28 46 c15 26
31 47 36 47 4 0 7 -31 7 -70 l0 -70 30 0 30 0 0 125 0 125 -34 0 c-30 0 -37
-6 -60 -45 -15 -25 -30 -45 -34 -45 -4 0 -20 20 -35 45 -25 39 -33 45 -63 45
l-34 0 0 -125z"/>
<path d="M6205 4134 c-145 -30 -315 -90 -424 -150 -24 -13 -45 -23 -45 -22
-32 60 -64 93 -114 116 -52 24 -68 26 -177 26 -124 0 -220 -21 -279 -59 -36
-24 -38 -39 -20 -133 18 -89 16 -121 -21 -322 -8 -41 -22 -118 -31 -170 -9
-52 -22 -131 -30 -175 -8 -44 -19 -105 -24 -135 -14 -79 -39 -223 -55 -310
-22 -124 -44 -247 -70 -396 -54 -306 -22 -413 136 -460 105 -31 288 -15 391
35 l53 26 -3 50 c-11 188 -6 272 26 450 19 99 37 203 42 230 5 28 16 91 25
140 9 50 23 127 31 173 8 45 21 121 29 170 9 48 20 119 26 157 12 79 19 88
114 134 100 47 128 56 185 55 136 -2 165 -85 119 -342 -11 -64 -25 -142 -29
-172 -5 -30 -16 -93 -24 -140 -8 -47 -28 -164 -45 -260 -17 -96 -39 -227 -51
-290 -38 -218 -19 -325 68 -382 101 -67 314 -67 464 0 63 27 74 50 54 109 -20
58 -20 158 -2 254 8 41 22 119 31 174 9 55 20 120 25 145 5 25 16 90 25 145 9
55 23 134 30 175 8 41 21 120 30 175 10 55 23 130 31 167 8 37 14 80 14 96 0
25 9 35 49 61 122 78 263 108 324 67 65 -44 74 -103 41 -291 -14 -83 -29 -175
-34 -205 -5 -30 -16 -95 -25 -145 -9 -49 -20 -116 -25 -147 -4 -31 -13 -81
-19 -110 -5 -29 -17 -91 -25 -138 -8 -47 -23 -125 -32 -174 -28 -153 -11 -280
45 -336 87 -87 316 -98 488 -24 68 29 78 49 58 116 -19 66 -19 165 0 270 9 46
22 119 30 163 7 44 20 118 29 165 8 47 22 128 31 180 9 52 20 115 25 140 5 25
16 90 25 145 9 55 23 131 31 169 8 38 14 81 14 96 0 29 12 39 100 87 111 60
225 75 277 37 66 -49 70 -115 23 -379 -17 -99 -35 -202 -40 -230 -5 -27 -18
-104 -30 -170 -100 -558 -106 -634 -60 -725 51 -99 232 -141 421 -96 141 33
181 67 161 134 -27 94 -24 183 13 387 32 179 46 263 55 315 4 30 18 109 30
175 49 274 71 403 77 447 5 44 10 50 55 79 172 110 333 111 369 2 13 -40 7
-177 -11 -258 -5 -25 -14 -73 -19 -107 -6 -35 -24 -144 -41 -243 -17 -99 -35
-205 -40 -235 -5 -30 -18 -109 -30 -175 -43 -244 -47 -352 -14 -416 39 -77
143 -122 279 -121 123 1 266 41 297 83 17 23 17 28 2 104 -19 89 -13 171 26
380 11 61 31 178 45 260 14 83 32 186 40 230 8 44 20 114 26 155 6 41 13 78
15 81 2 4 8 35 13 70 5 35 19 118 30 184 68 393 -34 610 -309 655 -167 28
-360 -19 -630 -155 l-110 -55 -19 38 c-93 181 -345 230 -647 126 -99 -33 -245
-98 -305 -136 -25 -15 -49 -28 -52 -28 -4 0 -15 17 -26 38 -71 138 -267 207
-491 171 -128 -20 -351 -107 -487 -190 l-32 -20 -20 38 c-45 89 -140 151 -262
172 -63 11 -173 13 -214 5z"/>
<path d="M3310 4101 c-74 -12 -157 -41 -184 -62 -30 -24 -33 -52 -11 -123 20
-64 19 -108 -5 -241 -10 -60 -26 -150 -35 -200 -8 -49 -17 -97 -20 -105 -2 -8
-9 -44 -14 -80 -10 -62 -53 -310 -86 -490 -9 -47 -22 -141 -31 -210 -35 -292
40 -491 223 -584 44 -22 110 -38 203 -50 89 -11 350 56 529 136 35 16 65 27
66 26 1 -2 9 -24 19 -50 34 -91 131 -140 276 -140 114 -1 259 34 303 71 15 12
18 25 13 61 -22 174 -19 227 24 470 27 146 53 292 60 335 5 28 23 127 40 220
17 94 37 206 45 250 7 44 21 121 30 170 57 313 60 337 47 407 -16 85 -48 130
-119 164 -54 27 -66 29 -178 28 -130 0 -238 -25 -291 -66 -28 -23 -28 -25 -4
-143 12 -59 9 -128 -10 -230 -5 -27 -16 -88 -24 -135 -9 -47 -22 -123 -31
-170 -8 -47 -20 -110 -25 -140 -5 -30 -16 -91 -24 -135 -8 -44 -22 -123 -31
-175 -9 -52 -23 -125 -31 -162 -8 -37 -14 -78 -14 -91 0 -30 -31 -50 -140 -92
-63 -25 -90 -30 -165 -30 -106 0 -142 18 -169 85 -21 53 -20 98 5 238 49 281
71 402 84 477 7 44 21 118 29 165 52 282 59 344 48 408 -22 133 -97 189 -262
196 -52 3 -115 1 -140 -3z"/>
<path d="M11365 4104 c-61 -9 -161 -38 -194 -57 l-33 -20 6 -61 c20 -187 21
-165 -28 -446 -19 -105 -29 -163 -56 -315 -37 -205 -36 -201 -89 -508 -49
-278 -16 -484 95 -607 94 -104 271 -154 444 -124 100 17 252 63 365 111 44 18
81 33 83 33 6 0 -6 -93 -28 -215 -19 -107 -33 -135 -66 -135 -7 0 -48 -13 -91
-29 -43 -17 -135 -50 -204 -75 -69 -25 -137 -49 -150 -54 -13 -6 -42 -17 -64
-25 -127 -48 -327 -135 -370 -161 -263 -156 -416 -440 -384 -711 11 -92 16
-109 46 -175 60 -126 172 -240 293 -298 194 -92 489 -72 735 50 241 120 474
400 620 743 34 81 116 337 145 451 6 24 18 45 28 49 14 5 189 103 250 140 323
195 690 500 747 621 54 114 16 219 -113 317 -106 81 -221 131 -284 125 -30 -3
-37 -10 -84 -100 -85 -159 -190 -290 -333 -415 -72 -63 -113 -91 -98 -65 5 7
28 130 47 252 5 30 16 93 24 140 8 47 26 150 40 230 13 80 34 197 45 260 11
63 23 131 26 150 10 62 36 203 46 258 6 29 15 79 19 110 5 31 16 98 24 147 40
232 4 341 -129 391 -71 27 -255 25 -340 -4 -128 -42 -137 -54 -117 -152 16
-76 15 -158 -4 -260 -8 -47 -19 -107 -24 -135 -5 -27 -18 -104 -30 -170 -12
-66 -28 -158 -36 -205 -9 -47 -20 -110 -25 -140 -19 -105 -40 -225 -54 -309
-8 -46 -15 -84 -17 -86 -18 -14 -152 -69 -196 -80 -123 -32 -231 -9 -267 58
-15 28 -17 49 -12 138 3 57 10 127 16 154 5 28 19 104 31 170 12 66 28 156 36
200 8 44 19 105 24 135 5 30 21 120 35 200 34 195 40 266 26 330 -24 113 -103
167 -257 174 -49 2 -102 2 -119 0z m445 -2871 c-1 -20 -35 -107 -75 -188 -103
-208 -235 -306 -367 -272 -124 32 -153 140 -62 237 48 51 86 71 324 164 173
68 180 71 180 59z"/>
</g>
</svg>
